<svg xmlns="http://www.w3.org/2000/svg" viewBox="0 0 250 575">
  <defs>
    <style>
      * {
        fill: #ff5719;
        opacity: 0.4;
      }
    </style>
  </defs>
  <path d="M418.2,303.2l-56.3,19.4L361,186.5h.4V54.7l-1.7-1A316.3,316.3,0,0,0,302,28.3L285.8,0H132.5L114.9,28.8A294.2,294.2,0,0,0,59,53.7l-1.7,1V186.5l-.9,136.1L0,303.2l56.8,39.1V444.7l75.9,131.4H285.5l75.9-131.4V342.3ZM354.9,325l-21.7,7.5,21-110.2ZM136.4,7H281.8l13.1,23.1L212.6,83.6v-40L122.9,29.1ZM117.5,35.3l88.1,14.3V96.5l94.5-61.4a308.9,308.9,0,0,1,54.3,23.7V185.9H354L325.6,335.1l-21.9,7.6-18.2-31.4H231.8l17.5-4.6V282.2h-7v19.1L232,304.1l3-1.9V272.3l-24.1-13.9-3.5,6,20.6,12v21.9l-19.1,11.5-18.7-11.5V274.4h-7v27.8l3.1,1.9L176,301.3V282.2h-7v24.5l17.3,4.6H132.7l-18.1,31.4L93,335.2,64.3,186.1V58.8A289.9,289.9,0,0,1,117.5,35.3ZM64,221.9,85.3,332.6l-22-7.6Zm53.8,129.3,18.9-32.9H281.5l19,32.9L372,326.5l-95.4,65.8-67.5-38.7-67.5,38.7L46.2,326.5Zm236.6,91.6L281.5,569.1H136.7L63.8,442.8V347.2l77.5,53.4,67.8-39,67.8,39,77.5-53.4Z"/>
</svg>